<svg id="Layer_1" data-name="Layer 1" xmlns="http://www.w3.org/2000/svg" viewBox="0 0 137.4 139.29"><title>Logo-Vidyo.io-Vertical-Light</title><polygon points="89.26 45.56 106.03 35.7 66.36 13.31 26.65 37.55 43.14 46.57 66.36 32.42 89.26 45.56" style="fill:#f9c11f"/><polygon points="91.29 63.76 106.03 54.78 89.26 45.56 74.25 54.4 91.29 63.76" style="fill:#8ac23f"/><polygon points="43.14 46.57 26.65 56.64 41.67 64.86 58.51 54.75 43.14 46.57" style="fill:#8ac23f"/><polygon points="66.36 50.04 74.25 54.4 89.26 45.56 66.36 32.42 43.14 46.57 58.51 54.75 66.36 50.04" style="fill:#fddd7d"/><polygon points="66.36 96.02 106.03 71.86 91.29 63.76 66.36 78.63 41.67 64.86 26.65 73.71 66.36 96.02" style="fill:#0a8ccc"/><polygon points="91.29 63.76 74.25 54.4 66.35 59.04 58.51 54.75 41.67 64.86 66.36 78.63 91.29 63.76" style="fill:#3eb2e0"/><polygon points="58.51 54.75 66.35 59.04 74.25 54.4 66.36 50.04 58.51 54.75" style="fill:#fff"/><path d="M33.66,111.19,28.43,125H26L21,111.19h2.4l3.9,10.56,4-10.56Z" style="fill:#fff"/><path d="M38.67,107.32a1.45,1.45,0,0,1-1.47,1.44,1.47,1.47,0,0,1,0-2.94A1.45,1.45,0,0,1,38.67,107.32ZM38.34,125H36.06V111.19h2.28Z" style="fill:#fff"/><path d="M52.68,105H55v20H52.68v-2.37a5.66,5.66,0,0,1-5,2.7c-3.81,0-6.51-3-6.51-7.17s2.76-7.32,6.51-7.32a5.93,5.93,0,0,1,5,2.43Zm-9.06,13.21c0,3,1.83,5.16,4.44,5.16s4.62-2.22,4.62-5.22-1.83-5.25-4.47-5.25S43.62,115.06,43.62,118.21Z" style="fill:#fff"/><path d="M67.06,111.19h2.49l-8.25,20.5H58.81l2.88-7.08-4.92-13.42H59.2l3.72,10.26Z" style="fill:#fff"/><path d="M84.53,118.15a7.07,7.07,0,0,1-7.08,7.2c-4.11,0-7-3-7-7.26s2.88-7.23,7.08-7.23S84.53,113.89,84.53,118.15Zm-11.74,0c0,3.06,1.89,5.13,4.71,5.13s4.68-2.13,4.68-5.13S80.32,113,77.53,113,72.79,115,72.79,118.12Z" style="fill:#fff"/><path d="M90.38,123.73a1.56,1.56,0,1,1-1.56-1.59A1.52,1.52,0,0,1,90.38,123.73Z" style="fill:#fff"/><path d="M97.19,107.32a1.45,1.45,0,0,1-1.47,1.44,1.47,1.47,0,0,1,0-2.94A1.45,1.45,0,0,1,97.19,107.32ZM96.86,125H94.58V111.19h2.28Z" style="fill:#fff"/><path d="M114.42,118.15a7.07,7.07,0,0,1-7.08,7.2c-4.11,0-7-3-7-7.26s2.88-7.23,7.08-7.23S114.42,113.89,114.42,118.15Zm-11.74,0c0,3.06,1.89,5.13,4.71,5.13s4.68-2.13,4.68-5.13-1.86-5.16-4.65-5.16S102.68,115,102.68,118.12Z" style="fill:#fff"/><path d="M115.57,110.89h-.34v-2.38h-.68v-.29h1.69v.29h-.68Z" style="fill:#fff"/><path d="M116.94,110.89h-.34v-2.67h.33l1,2,1-2h.33v2.67h-.34v-2l-1,2-1-2Z" style="fill:#fff"/></svg>