<svg id="Layer_1" data-name="Layer 1" xmlns="http://www.w3.org/2000/svg" viewBox="0 0 270.1 77.09"><title>Logo-Vidyo.io-Horizontal-Dark</title><polygon points="57.93 34.81 68.36 28.68 43.69 14.76 19.01 29.84 29.26 35.44 43.69 26.64 57.93 34.81" style="fill:#f9c11f"/><polygon points="59.19 46.13 68.36 40.55 57.93 34.81 48.59 40.3 59.19 46.13" style="fill:#8ac23f"/><polygon points="29.26 35.44 19.01 41.7 28.34 46.81 38.81 40.52 29.26 35.44" style="fill:#8ac23f"/><polygon points="43.69 37.6 48.59 40.3 57.93 34.81 43.69 26.64 29.26 35.44 38.81 40.52 43.69 37.6" style="fill:#fddd7d"/><polygon points="43.69 66.18 68.36 51.16 59.19 46.13 43.69 55.37 28.34 46.81 19.01 52.31 43.69 66.18" style="fill:#0a8ccc"/><polygon points="59.19 46.13 48.59 40.3 43.68 43.19 38.81 40.52 28.34 46.81 43.69 55.37 59.19 46.13" style="fill:#3eb2e0"/><polygon points="38.81 40.52 43.68 43.19 48.59 40.3 43.69 37.6 38.81 40.52" style="fill:#fff"/><path d="M99.91,27.8,90.7,52.19H86.47L77.53,27.8h4.23l6.88,18.62L95.73,27.8Z" style="fill:#50565b"/><path d="M108.74,21a2.55,2.55,0,0,1-2.59,2.54,2.59,2.59,0,0,1,.05-5.18A2.56,2.56,0,0,1,108.74,21Zm-.58,31.21h-4V27.8h4Z" style="fill:#50565b"/><path d="M133.45,16.9h4V52.19h-4V48c-2.43,3.33-5,4.76-8.73,4.76-6.72,0-11.48-5.24-11.48-12.64s4.87-12.91,11.48-12.91a10.46,10.46,0,0,1,8.73,4.29Zm-16,23.28c0,5.34,3.23,9.1,7.83,9.1s8.15-3.91,8.15-9.21c0-5.5-3.23-9.26-7.88-9.26C120.75,30.82,117.47,34.63,117.47,40.18Z" style="fill:#50565b"/><path d="M158.79,27.8h4.39L148.63,63.93h-4.39l5.08-12.48L140.65,27.8h4.29l6.56,18.09Z" style="fill:#50565b"/><path d="M189.58,40.07a12.46,12.46,0,0,1-12.49,12.7c-7.25,0-12.33-5.29-12.33-12.8s5.08-12.75,12.49-12.75C184.45,27.22,189.58,32.56,189.58,40.07ZM168.9,40c0,5.4,3.33,9,8.31,9,4.81,0,8.25-3.76,8.25-9,0-5.45-3.28-9.1-8.2-9.1S168.9,34.57,168.9,40Z" style="fill:#50565b"/><path d="M199.9,49.91a2.75,2.75,0,1,1-2.75-2.8A2.69,2.69,0,0,1,199.9,49.91Z" style="fill:#50565b"/><path d="M211.91,21a2.55,2.55,0,0,1-2.59,2.54,2.59,2.59,0,0,1,.05-5.18A2.56,2.56,0,0,1,211.91,21Zm-.58,31.21h-4V27.8h4Z" style="fill:#50565b"/><path d="M242.28,40.07a12.46,12.46,0,0,1-12.49,12.7c-7.25,0-12.33-5.29-12.33-12.8s5.08-12.75,12.49-12.75C237.14,27.22,242.28,32.56,242.28,40.07ZM221.59,40c0,5.4,3.33,9,8.31,9,4.81,0,8.25-3.76,8.25-9,0-5.45-3.28-9.1-8.2-9.1S221.59,34.57,221.59,40Z" style="fill:#50565b"/><path d="M244.25,29.46h-.5V25.9h-1v-.43h2.54v.43h-1Z" style="fill:#50565b"/><path d="M246.31,29.46h-.5v-4h.5l1.48,3,1.5-3h.49v4h-.5V26.54l-1.49,3-1.48-3Z" style="fill:#50565b"/></svg>